HIERARCHY
ROOT SpineBase
{
  OFFSET 0.000000 0.000000 0.000000
  CHANNELS 6 Xposition Yposition Zposition Zrotation Xrotation Yrotation
  JOINT SpineMid
  {
    OFFSET 0.000000 31.824516 0.000000
    CHANNELS 3 Zrotation Xrotation Yrotation
    JOINT SpineShoulder
    {
      OFFSET -0.114537 23.703239 -0.835888
      CHANNELS 3 Zrotation Xrotation Yrotation
      JOINT Neck
      {
        OFFSET -0.071717 7.871401 -0.635874
        CHANNELS 3 Zrotation Xrotation Yrotation
        JOINT Head
        {
          OFFSET 2.910953 13.999256 -1.230621
          CHANNELS 3 Zrotation Xrotation Yrotation
          End Site
          {
            OFFSET 0 0 0
          }
        }
      }
      JOINT ShoulderLeft
      {
        OFFSET -14.632852 -1.563999 -8.335414
        CHANNELS 3 Zrotation Xrotation Yrotation
        JOINT ElbowLeft
        {
          OFFSET -5.894247 -26.472090 -1.722826
          CHANNELS 3 Zrotation Xrotation Yrotation
          JOINT WristLeft
          {
            OFFSET -0.416740 -23.214119 -6.876663
            CHANNELS 3 Zrotation Xrotation Yrotation
            JOINT HandLeft
            {
              OFFSET 0.580954 -7.183750 -1.800248
              CHANNELS 3 Zrotation Xrotation Yrotation
              JOINT HandTipLeft
              {
                OFFSET 1.526635 -6.665606 -0.342493
                CHANNELS 3 Zrotation Xrotation Yrotation
                End Site
                {
                  OFFSET 0 0 0
                }
              }
              JOINT ThumbLeft
              {
                OFFSET -2.438852 -1.883677 -2.027200
                CHANNELS 3 Zrotation Xrotation Yrotation
                End Site
                {
                  OFFSET 0 0 0
                }
              }
            }
          }
        }
      }
      JOINT ShoulderRight
      {
        OFFSET 17.290887 -4.209857 4.232066
        CHANNELS 3 Zrotation Xrotation Yrotation
        JOINT ElbowRight
        {
          OFFSET 1.223543 -22.723767 4.459678
          CHANNELS 3 Zrotation Xrotation Yrotation
          JOINT WristRight
          {
            OFFSET -2.071933 -22.714265 -7.410459
            CHANNELS 3 Zrotation Xrotation Yrotation
            JOINT HandRight
            {
              OFFSET -2.964681 -8.313414 -3.324298
              CHANNELS 3 Zrotation Xrotation Yrotation
              JOINT HandTipRight
              {
                OFFSET 0.006511 -6.018684 0.384043
                CHANNELS 3 Zrotation Xrotation Yrotation
                End Site
                {
                  OFFSET 0 0 0
                }
              }
              JOINT ThumbRight
              {
                OFFSET -1.687842 0.859258 -3.997106
                CHANNELS 3 Zrotation Xrotation Yrotation
                End Site
                {
                  OFFSET 0 0 0
                }
              }
            }
          }
        }
      }
    }
  }
  JOINT HipLeft
  {
    OFFSET -6.864763 1.944785 -5.800848
    CHANNELS 3 Zrotation Xrotation Yrotation
    JOINT KneeLeft
    {
      OFFSET -2.347018 -32.913968 3.387648
      CHANNELS 3 Zrotation Xrotation Yrotation
      JOINT AnkleLeft
      {
        OFFSET -1.784991 -34.143134 8.381947
        CHANNELS 3 Zrotation Xrotation Yrotation
        JOINT FootLeft
        {
          OFFSET 7.072323 -4.750213 -0.229074
          CHANNELS 3 Zrotation Xrotation Yrotation
          End Site
          {
            OFFSET 0 0 0
          }
        }
      }
    }
  }
  JOINT HipRight
  {
    OFFSET 6.488031 0.639051 -1.365194
    CHANNELS 3 Zrotation Xrotation Yrotation
    JOINT KneeRight
    {
      OFFSET 0.882936 -33.232613 8.404979
      CHANNELS 3 Zrotation Xrotation Yrotation
      JOINT AnkleRight
      {
        OFFSET -4.226689 -32.663545 7.231718
        CHANNELS 3 Zrotation Xrotation Yrotation
        JOINT FootRight
        {
          OFFSET 3.486642 -4.079270 -12.049774
          CHANNELS 3 Zrotation Xrotation Yrotation
          End Site
          {
            OFFSET 0 0 0
          }
        }
      }
    }
  }
}
MOTION
Frames: 15
Frame Time: 0.033333
16.282020 75.087516 316.686080 -3.473982 -11.180410 10.398466 -0.543066 0.038321 -10.881899 0.053697 0.495092 -0.206864 13.272947 15.467156 -2.306727 0.000000 0.000000 0.000000 2.397469 -5.055388 3.788284 -4.899754 8.957870 -0.195105 2.648110 -5.588496 -2.619832 -1.907918 17.758657 2.632929 0.000000 0.000000 0.000000 0.000000 0.000000 0.000000 22.364281 18.632921 -0.728764 -122.032931 26.190169 51.759198 -68.000933 -33.316827 -76.422201 -3.659671 67.849565 10.746931 0.000000 0.000000 0.000000 0.000000 0.000000 0.000000 5.865217 11.978287 -11.423732 1.769591 -4.409067 0.788070 -27.983485 16.348902 37.055106 0.000000 0.000000 0.000000 4.902104 7.187311 -11.224634 1.924833 -5.816132 1.700248 -10.817351 -13.662267 14.964408 0.000000 0.000000 0.000000
15.736873 75.665478 314.926852 -3.949966 -12.765133 14.998476 -0.380785 0.152767 -15.605923 0.049057 0.374798 -0.232216 13.487158 17.170966 -2.634690 0.000000 0.000000 0.000000 2.375462 -7.338034 4.666435 -7.574512 9.515085 0.898707 4.068751 -5.238975 -3.793954 -1.109261 18.542620 2.113325 0.000000 0.000000 0.000000 0.000000 0.000000 0.000000 17.869023 23.918628 -1.118253 -125.191628 22.883936 52.223043 -61.567453 -27.387301 -73.522650 8.059464 68.919035 7.871135 0.000000 0.000000 0.000000 0.000000 0.000000 0.000000 7.238837 11.250194 -16.154408 2.780013 -2.463045 0.867678 -40.660801 17.956788 57.010320 0.000000 0.000000 0.000000 8.443538 9.765128 -16.011385 1.123207 -11.755012 2.125638 -11.140739 0.035599 22.293780 0.000000 0.000000 0.000000
15.224240 76.247586 312.669747 -4.183375 -14.388476 18.532428 -0.201810 0.237539 -19.243809 0.019305 0.220691 -0.247937 12.251674 18.811794 -2.673247 0.000000 0.000000 0.000000 1.965792 -10.039819 5.675358 -9.730324 9.343288 1.874685 2.663060 -6.530374 -4.616319 0.161526 20.420801 1.203663 0.000000 0.000000 0.000000 0.000000 0.000000 0.000000 12.814107 29.672782 -0.863454 -124.511832 20.725139 49.600415 -53.978949 -24.595382 -67.922210 -15.150316 68.684906 37.407264 0.000000 0.000000 0.000000 0.000000 0.000000 0.000000 8.354213 10.152905 -19.740046 3.463082 -0.749049 0.863591 -49.422433 16.100134 65.996039 0.000000 0.000000 0.000000 12.520564 13.675767 -20.021910 0.791119 -17.915973 2.575403 -12.949448 5.815788 27.285903 0.000000 0.000000 0.000000
14.839093 76.869839 310.278230 -4.080790 -15.697350 20.446147 -0.061584 0.243736 -21.202438 -0.037355 -0.009908 -0.250172 9.699609 19.648152 -2.190278 0.000000 0.000000 0.000000 1.422916 -13.095223 6.730705 -11.439301 8.953944 2.684236 -0.972018 -6.681209 -4.318868 3.047904 21.763826 -0.594121 0.000000 0.000000 0.000000 0.000000 0.000000 0.000000 6.079625 34.506771 0.471521 -117.299484 19.973959 44.577810 -54.681911 -26.486143 -70.462489 -60.362237 63.803032 95.073084 0.000000 0.000000 0.000000 0.000000 0.000000 0.000000 8.374863 9.103973 -21.541491 4.398366 0.882119 0.817582 -55.382559 14.173005 70.911289 0.000000 0.000000 0.000000 16.945130 19.357819 -22.900888 0.365491 -23.890714 2.715931 -14.197162 9.778281 29.730897 0.000000 0.000000 0.000000
14.542291 77.339239 307.784815 -4.005045 -17.082852 21.024295 -0.132699 0.033368 -21.831421 -0.003953 0.065466 -0.250717 7.125316 20.287716 -1.545125 0.000000 0.000000 0.000000 1.022592 -15.804219 7.730273 -12.831158 7.605619 3.297359 -2.400823 -2.717212 -3.352382 3.067782 18.303905 -2.322449 0.000000 0.000000 0.000000 0.000000 0.000000 0.000000 -1.323046 38.471571 2.731478 -90.261747 21.646073 31.565404 -88.804283 -45.905317 -111.869395 -111.632442 16.044397 155.251922 0.000000 0.000000 0.000000 0.000000 0.000000 0.000000 8.268416 8.352433 -22.028794 5.108861 2.104683 0.718847 -59.784396 12.189813 71.891857 0.000000 0.000000 0.000000 21.345483 26.045738 -25.170784 0.916880 -27.428145 2.811949 -16.247849 6.531780 32.472304 0.000000 0.000000 0.000000
14.515087 77.114777 304.663680 -3.735383 -17.881121 19.960008 -0.148187 -0.043512 -20.750871 -0.018281 0.138141 -0.237503 4.343345 20.263610 -0.772597 0.000000 0.000000 0.000000 0.226877 -19.118149 8.719896 -12.506110 6.432508 2.873400 -2.842771 0.110936 -2.779128 1.110573 17.094501 -2.459096 0.000000 0.000000 0.000000 0.000000 0.000000 0.000000 -8.382582 42.619824 5.652826 -8.790034 -12.979490 1.125462 31.980130 -27.524993 2.085443 179.971044 6.640899 90.602749 0.000000 0.000000 0.000000 0.000000 0.000000 0.000000 7.629686 8.134890 -20.825113 5.726218 1.238626 0.818053 -62.233388 13.347897 79.561552 0.000000 0.000000 0.000000 24.211741 33.330621 -26.108572 1.997928 -29.188478 2.799198 -17.228242 0.079293 31.878855 0.000000 0.000000 0.000000
14.561263 76.399873 301.018713 -3.506311 -18.382777 19.359029 -0.148931 0.097200 -20.112183 -0.064354 0.289205 -0.221344 1.536087 19.467166 0.087178 0.000000 0.000000 0.000000 -0.823650 -23.350750 9.747572 -11.542243 5.866884 2.117275 -0.416774 6.932836 -2.618091 -0.263857 9.724219 -4.607671 0.000000 0.000000 0.000000 0.000000 0.000000 0.000000 -10.713691 45.160905 7.013489 14.567315 -33.088893 4.786749 17.872666 -7.394425 -3.166833 173.739320 8.065342 89.468299 0.000000 0.000000 0.000000 0.000000 0.000000 0.000000 7.265147 8.055134 -20.131068 5.960518 -0.911851 1.039747 -63.862091 15.316320 87.894149 0.000000 0.000000 0.000000 26.917227 39.075000 -27.572254 2.328916 -28.445781 2.090744 -17.354434 -10.299964 28.912844 0.000000 0.000000 0.000000
14.749627 75.267247 297.394443 -3.112437 -18.352976 17.052064 -0.111214 0.116664 -17.730034 -0.041399 0.369139 -0.202454 -1.517937 17.899264 0.967877 0.000000 0.000000 0.000000 -2.035482 -26.322812 10.380411 -8.585675 5.395988 -0.300712 -0.668069 7.792764 -2.628964 -2.623655 9.183494 -3.990740 0.000000 0.000000 0.000000 0.000000 0.000000 0.000000 -12.934156 46.112307 7.976483 22.277784 -38.190064 7.987282 14.562740 -7.890502 -0.691721 171.412115 4.545665 102.478719 0.000000 0.000000 0.000000 0.000000 0.000000 0.000000 6.476207 7.860116 -17.645646 5.646147 -3.496295 1.234611 -62.446096 19.250083 90.216810 0.000000 0.000000 0.000000 26.751598 44.895342 -26.589736 3.344807 -27.341498 1.738991 -17.044558 -16.013056 25.533537 0.000000 0.000000 0.000000
15.041417 73.934275 294.022226 -2.606932 -17.899097 13.747156 -0.126653 0.109127 -14.313400 -0.035116 0.419345 -0.179640 -4.158656 16.393548 1.574618 0.000000 0.000000 0.000000 -3.033439 -27.782104 10.559371 -5.328582 5.262943 -2.940183 -1.441486 6.372442 -2.657740 -2.218527 11.905347 -3.029534 0.000000 0.000000 0.000000 0.000000 0.000000 0.000000 -14.330103 47.280575 8.655509 30.076475 -48.774962 13.780682 10.312945 -0.524078 -1.116869 172.552060 7.075011 118.097006 0.000000 0.000000 0.000000 0.000000 0.000000 0.000000 5.419141 7.063668 -14.069256 4.785748 -5.674175 1.272477 -58.576902 24.700069 88.281241 0.000000 0.000000 0.000000 23.478910 50.026899 -23.091714 4.656212 -26.674721 1.781289 -15.884161 -18.848885 21.186716 0.000000 0.000000 0.000000
15.333307 72.704296 290.724921 -1.880782 -17.477626 11.478258 -0.032973 0.169084 -11.905259 -0.013167 0.452497 -0.145952 -7.087237 14.921543 2.098428 0.000000 0.000000 0.000000 -3.670198 -28.133305 10.532985 -3.544846 3.704453 -4.696126 3.411212 11.264203 -5.264082 -4.312067 8.606860 -1.908415 0.000000 0.000000 0.000000 0.000000 0.000000 0.000000 -14.425582 47.610384 8.478998 30.817804 -51.932453 15.156116 4.748373 5.513323 -0.154049 179.869017 25.163673 136.986847 0.000000 0.000000 0.000000 0.000000 0.000000 0.000000 4.001466 6.504019 -11.466258 4.703399 -7.899281 1.395517 -56.951916 28.819648 89.175362 0.000000 0.000000 0.000000 19.846691 53.706066 -19.958970 5.833976 -26.835924 2.097452 -14.699395 -19.265899 18.283062 0.000000 0.000000 0.000000
15.570022 71.636924 288.234331 -1.202394 -16.979292 8.801577 0.073027 0.071594 -9.110251 0.053234 0.389997 -0.117749 -8.409964 14.653384 2.170468 0.000000 0.000000 0.000000 -3.972677 -26.703281 10.195681 -2.078012 3.617227 -5.728380 8.491300 11.795227 -8.649230 -5.287174 10.279579 0.296975 0.000000 0.000000 0.000000 0.000000 0.000000 0.000000 -12.317171 45.543010 6.872902 31.080292 -57.530802 17.182684 -0.858581 14.355993 1.778178 -178.493542 61.373059 163.442667 0.000000 0.000000 0.000000 0.000000 0.000000 0.000000 2.560803 5.990356 -8.487054 4.907838 -9.786788 1.530148 -55.898240 32.164177 89.833251 0.000000 0.000000 0.000000 14.645086 56.926319 -15.281715 6.910398 -29.387178 2.822136 -13.171282 -16.423069 16.437027 0.000000 0.000000 0.000000
15.643231 70.926146 286.685867 -0.617264 -16.605797 7.123997 0.240992 -0.100493 -7.343881 0.201584 0.339284 -0.095653 -8.481947 15.093874 1.970831 0.000000 0.000000 0.000000 -3.718753 -23.434219 9.515613 -1.541277 4.476439 -5.732543 12.680975 10.072912 -10.850097 -4.925553 13.691708 1.904826 0.000000 0.000000 0.000000 0.000000 0.000000 0.000000 -10.655479 41.970009 5.306187 38.368600 -61.096750 22.744496 -6.746114 25.740999 3.062782 14.482738 72.088123 -17.042982 0.000000 0.000000 0.000000 0.000000 0.000000 0.000000 1.646285 6.130067 -6.635999 4.782704 -11.488959 1.645904 -56.089620 33.209600 91.039153 0.000000 0.000000 0.000000 10.605140 59.066571 -11.817349 7.820357 -33.983371 3.910111 -12.248193 -10.798870 16.679320 0.000000 0.000000 0.000000
15.618222 70.543806 285.499384 -0.122719 -16.619788 5.998348 0.482879 -0.330962 -6.157975 0.369037 0.408767 -0.077022 -8.685139 15.401397 1.898787 0.000000 0.000000 0.000000 -3.647917 -20.904089 9.050278 -1.280698 6.617149 -5.550020 13.959598 12.050563 -10.446077 -4.457161 11.871524 2.249834 0.000000 0.000000 0.000000 0.000000 0.000000 0.000000 -8.958399 37.744522 3.857035 40.908393 -62.405491 24.776554 -11.584967 33.768250 5.202691 12.334075 48.747999 -9.470163 0.000000 0.000000 0.000000 0.000000 0.000000 0.000000 0.697035 6.513595 -5.348310 5.138025 -12.700826 1.776307 -56.799151 34.784938 94.765780 0.000000 0.000000 0.000000 6.793391 60.608863 -8.854825 9.698884 -37.862281 5.698183 -12.305801 -8.096738 16.188886 0.000000 0.000000 0.000000
15.448007 70.395070 284.545488 0.252114 -16.145036 5.496425 0.578948 -0.227040 -5.592872 0.363926 0.458012 -0.053814 -6.820661 15.438468 1.321747 0.000000 0.000000 0.000000 -2.911665 -19.063101 8.442673 -2.017512 7.918363 -4.867722 12.913798 16.940300 -8.655402 -1.968909 7.281031 1.584395 0.000000 0.000000 0.000000 0.000000 0.000000 0.000000 -7.475775 33.343216 2.764402 39.906580 -61.957513 23.743706 -15.389764 45.014374 4.420111 9.462069 35.270466 -2.482302 0.000000 0.000000 0.000000 0.000000 0.000000 0.000000 -0.008658 4.912806 -4.630451 5.609082 -11.958481 1.717234 -57.216574 34.414525 93.296381 0.000000 0.000000 0.000000 4.589973 61.050391 -7.242517 10.712612 -39.310890 6.562492 -12.491421 -6.730681 16.681756 0.000000 0.000000 0.000000
15.154531 70.524201 284.034022 0.539120 -15.582547 5.540896 0.642769 -0.045906 -5.588816 0.311332 0.521009 -0.031981 -3.951738 15.418955 0.567749 0.000000 0.000000 0.000000 -1.786864 -17.234759 7.747478 -3.586022 9.562970 -3.714766 8.483876 24.124065 -4.578922 2.663775 -0.346527 0.369091 0.000000 0.000000 0.000000 0.000000 0.000000 0.000000 -5.864775 27.951297 1.766362 36.057863 -59.768048 20.139360 -17.638732 58.862855 0.928903 6.632492 21.536153 5.306014 0.000000 0.000000 0.000000 0.000000 0.000000 0.000000 -0.504337 2.834558 -4.481293 6.203121 -10.306952 1.575542 -57.858698 32.857911 90.214276 0.000000 0.000000 0.000000 3.704189 60.721841 -6.883452 11.474752 -39.799089 7.187292 -13.047871 -5.988776 17.792629 0.000000 0.000000 0.000000
